<svg xmlns="http://www.w3.org/2000/svg" viewBox="0 0 256 256" fill="currentColor" aria-label="Void Energy">
  <path d="M 231.37 90.38 A 110 110 0 0 1 231.37 165.62 Q 190.46 161.80 160.12 163.67 A 48 48 0 0 0 175.53 134.68 Q 209.33 111.32 231.37 90.38 Z" transform="rotate(0 128 128)"/>
  <path d="M 231.37 90.38 A 110 110 0 0 1 231.37 165.62 Q 190.46 161.80 160.12 163.67 A 48 48 0 0 0 175.53 134.68 Q 209.33 111.32 231.37 90.38 Z" transform="rotate(60 128 128)"/>
  <path d="M 231.37 90.38 A 110 110 0 0 1 231.37 165.62 Q 190.46 161.80 160.12 163.67 A 48 48 0 0 0 175.53 134.68 Q 209.33 111.32 231.37 90.38 Z" transform="rotate(120 128 128)"/>
  <path d="M 231.37 90.38 A 110 110 0 0 1 231.37 165.62 Q 190.46 161.80 160.12 163.67 A 48 48 0 0 0 175.53 134.68 Q 209.33 111.32 231.37 90.38 Z" transform="rotate(180 128 128)"/>
  <path d="M 231.37 90.38 A 110 110 0 0 1 231.37 165.62 Q 190.46 161.80 160.12 163.67 A 48 48 0 0 0 175.53 134.68 Q 209.33 111.32 231.37 90.38 Z" transform="rotate(240 128 128)"/>
  <path d="M 231.37 90.38 A 110 110 0 0 1 231.37 165.62 Q 190.46 161.80 160.12 163.67 A 48 48 0 0 0 175.53 134.68 Q 209.33 111.32 231.37 90.38 Z" transform="rotate(300 128 128)"/>
</svg>
