<svg xmlns="http://www.w3.org/2000/svg" viewBox="0 0 256 256">
  <style>
    path { fill: #0a0a0a; }
    @media (prefers-color-scheme: dark) {
      path { fill: #ffffff; }
    }
  </style>
  <path d="M 239.57 89.58 A 118 118 0 0 1 239.57 166.42 Q 192 173 140.37 163.93 A 38 38 0 0 0 157.53 151.91 Q 208 113 239.57 89.58 Z" transform="rotate(0 128 128)"/>
  <path d="M 239.57 89.58 A 118 118 0 0 1 239.57 166.42 Q 192 173 140.37 163.93 A 38 38 0 0 0 157.53 151.91 Q 208 113 239.57 89.58 Z" transform="rotate(51.4286 128 128)"/>
  <path d="M 239.57 89.58 A 118 118 0 0 1 239.57 166.42 Q 192 173 140.37 163.93 A 38 38 0 0 0 157.53 151.91 Q 208 113 239.57 89.58 Z" transform="rotate(102.8571 128 128)"/>
  <path d="M 239.57 89.58 A 118 118 0 0 1 239.57 166.42 Q 192 173 140.37 163.93 A 38 38 0 0 0 157.53 151.91 Q 208 113 239.57 89.58 Z" transform="rotate(154.2857 128 128)"/>
  <path d="M 239.57 89.58 A 118 118 0 0 1 239.57 166.42 Q 192 173 140.37 163.93 A 38 38 0 0 0 157.53 151.91 Q 208 113 239.57 89.58 Z" transform="rotate(205.7143 128 128)"/>
  <path d="M 239.57 89.58 A 118 118 0 0 1 239.57 166.42 Q 192 173 140.37 163.93 A 38 38 0 0 0 157.53 151.91 Q 208 113 239.57 89.58 Z" transform="rotate(257.1429 128 128)"/>
  <path d="M 239.57 89.58 A 118 118 0 0 1 239.57 166.42 Q 192 173 140.37 163.93 A 38 38 0 0 0 157.53 151.91 Q 208 113 239.57 89.58 Z" transform="rotate(308.5714 128 128)"/>
</svg>
